<svg t="1652441595633" class="icon" viewBox="0 0 1024 1024" version="1.1" xmlns="http://www.w3.org/2000/svg" p-id="1482" width="200" height="200"><path d="M777.951434 399.796942l-15.04227 0 0-17.907465c0-64.159888-25.991406-128.831418-73.164785-177.232737-23.22854-23.84251-48.912961-42.67093-78.48586-55.973618-31.210153-14.018987-63.852903-21.181973-97.109623-21.181973l-4.809433 0c-65.2855 0-126.784851 27.62866-173.037274 77.667233-21.795943 23.535525-38.987109 50.8572-50.959528 80.839412-12.279404 30.800839-18.726092 63.034276-18.726092 95.779354l0 17.907465-10.130509 0c-45.638453 0-82.783651 37.04287-82.783651 82.578995l0 330.520636c0 45.536125 37.145198 82.578995 82.783651 82.578995l521.465374 0c45.638453 0 82.783651-37.04287 82.783651-82.578995l0-330.520636C860.735085 436.839812 823.589887 399.796942 777.951434 399.796942zM321.873888 381.889477c0-50.8572 20.465674-101.612072 55.25732-139.37124 35.507944-38.475467 82.783651-59.759768 132.208254-59.759768l4.809433 0c49.424603 0 98.439892 22.0006 135.687419 60.27141 37.247527 38.168482 57.815529 88.821025 57.815529 138.859598l0 17.907465-385.777955 0L321.873888 381.889477zM804.352153 812.896572c0 15.04227-12.279404 27.321675-27.424003 27.321675L257.714 840.218247c-15.144599 0-27.424003-12.279404-27.424003-27.321675l0-330.520636c0-15.04227 12.279404-27.321675 27.424003-27.321675l519.21415 0c15.144599 0 27.424003 12.279404 27.424003 27.321675L804.352153 812.896572z" p-id="1483"></path><path d="M519.162986 552.47087c-52.903767 0-94.858399 42.05696-94.858399 94.858399 0 52.903767 42.05696 95.881683 94.858399 95.881683 52.903767 0 95.881683-43.080244 95.881683-95.881683C615.044669 594.527831 572.066753 552.47087 519.162986 552.47087zM519.162986 688.567603c-22.716898 0-41.136005-18.419107-41.136005-41.136005 0-22.716898 18.419107-41.136005 41.136005-41.136005 22.716898 0 41.136005 18.419107 41.136005 41.136005C560.298991 670.046168 541.777556 688.567603 519.162986 688.567603z" p-id="1484"></path></svg>