<svg t="1656301057700" class="icon" viewBox="0 0 1024 1024" version="1.1" xmlns="http://www.w3.org/2000/svg" p-id="2542" width="200" height="200"><path d="M832 213.333333c-149.333333 0-222.506667-39.04-299.946667-80.213333A626.986667 626.986667 0 0 0 192 42.666667a42.666667 42.666667 0 0 0-42.666667 42.666666v853.333334a42.666667 42.666667 0 0 0 85.333334 0V129.28c121.173333 6.613333 187.52 42.666667 257.28 78.933333A625.706667 625.706667 0 0 0 789.333333 298.666667v338.986666c-85.333333-9.173333-139.733333-45.013333-196.693333-82.773333-64-42.666667-128-85.333333-231.253333-85.333333a42.666667 42.666667 0 0 0 0 85.333333c76.8 0 126.506667 33.066667 184.106666 71.253333C615.68 672.64 695.04 725.333333 832 725.333333a42.666667 42.666667 0 0 0 42.666667-42.666666V256a42.666667 42.666667 0 0 0-42.666667-42.666667z" fill="#333333" p-id="2543"></path></svg>