<?xml version="1.0" standalone="no"?><!DOCTYPE svg PUBLIC "-//W3C//DTD SVG 1.1//EN" "http://www.w3.org/Graphics/SVG/1.1/DTD/svg11.dtd"><svg t="1652369951846" class="icon" viewBox="0 0 1024 1024" version="1.1" xmlns="http://www.w3.org/2000/svg" p-id="4223" xmlns:xlink="http://www.w3.org/1999/xlink" width="200" height="200"><defs><style type="text/css">@font-face { font-family: feedback-iconfont; src: url("//at.alicdn.com/t/font_1031158_u69w8yhxdu.woff2?t=1630033759944") format("woff2"), url("//at.alicdn.com/t/font_1031158_u69w8yhxdu.woff?t=1630033759944") format("woff"), url("//at.alicdn.com/t/font_1031158_u69w8yhxdu.ttf?t=1630033759944") format("truetype"); }
</style></defs><path d="M778.3 888.5H557.6c-15.2 0-27.6-12.3-27.6-27.6s12.3-27.6 27.6-27.6h220.8c5.1 0 9.2-4.1 9.2-9.2V713.9c0-41.7-21.3-79.4-55.7-100.9L691 674.2c-10.2 15.4-35.6 15.4-45.8 0l-41.1-61.6c-12.3 4.3-26.3-0.7-32.9-12.3-7.6-13.2-3-30 10.2-37.6 7.1-4.1 14.6-7.7 22.3-10.8 12.2-4.8 25.9-0.4 33.1 10.3l31.3 47 31.3-47c7.2-10.8 21.1-15.2 33.1-10.3 67 26.6 110.2 90.2 110.2 162v110.2c-0.1 35.5-29 64.4-64.4 64.4zM668.1 539.5c-58.8 0-111-37.2-130.3-92.8-4.9-14.4 2.6-30.1 17-35s30.1 2.6 35 17c11.5 33.3 42.9 55.7 78.2 55.7 45.6 0 82.7-37.1 82.7-82.7s-37-82.7-82.6-82.7c-14.8 0-29.3 4-42 11.4-13.1 7.7-30 3.4-37.7-9.8-7.7-13.1-3.4-30 9.8-37.7 21.1-12.4 45.3-19 69.9-19 76 0 137.7 61.8 137.7 137.7s-61.7 137.9-137.7 137.9z" p-id="4224" fill="#b8bcbd"></path><path d="M539.6 888.5H245.7c-35.5 0-64.3-28.9-64.3-64.3v-147c0-86.9 54.7-166.2 136.1-197.3 12-4.6 25.6-0.2 32.7 10.4l42.4 63.6 42.4-63.6c7.1-10.8 20.8-15 32.7-10.4 81.4 31.1 136.1 110.3 136.1 197.3v147c0 35.4-28.8 64.3-64.2 64.3zM317.4 540.6c-49.1 27.1-80.9 79.6-80.9 136.6v147c0 5.1 4.2 9.2 9.2 9.2h293.9c5.1 0 9.2-4.1 9.2-9.2v-147c0-56.9-31.7-109.4-80.9-136.6L415.6 619c-10.2 15.4-35.6 15.4-45.8 0l-52.4-78.4zM392.6 447.7c-86.1 0-156.1-70.1-156.1-156.1s70.1-156.1 156.1-156.1 156.1 70 156.1 156-70 156.2-156.1 156.2z m0-257.1c-55.7 0-101 45.4-101 101s45.4 101 101 101 101-45.4 101-101-45.3-101-101-101z" p-id="4225" fill="#b8bcbd"></path></svg>